<svg xmlns="http://www.w3.org/2000/svg" viewBox="0 0 1200 630" width="1200" height="630"><defs><linearGradient id="bg" x1="0%" y1="0%" x2="100%" y2="100%"><stop offset="0%" stop-color="#0c0a09"/><stop offset="50%" stop-color="#1c1917"/><stop offset="100%" stop-color="#0c0a09"/></linearGradient><linearGradient id="g" x1="0%" y1="0%" x2="100%" y2="100%"><stop offset="0%" stop-color="#8b5cf6"/><stop offset="100%" stop-color="#06b6d4"/></linearGradient><linearGradient id="c" x1="0%" y1="0%" x2="0%" y2="100%"><stop offset="0%" stop-color="#06b6d4"/><stop offset="100%" stop-color="#22d3ee"/></linearGradient><filter id="f"><feGaussianBlur stdDeviation="3" result="b"/><feMerge><feMergeNode in="b"/><feMergeNode in="SourceGraphic"/></feMerge></filter></defs><rect width="1200" height="630" fill="url(#bg)"/><g transform="translate(300,300)"><circle cx="0" cy="0" r="100" fill="#1c1917" stroke="url(#g)" stroke-width="2.5" filter="url(#f)"/><text x="0" y="-20" text-anchor="middle" fill="#a78bfa" font-size="14" font-weight="bold">MACHINE</text><text x="0" y="5" text-anchor="middle" fill="#a78bfa" font-size="14" font-weight="bold">LEARNING</text><g transform="translate(-40,35)"><circle cx="0" cy="0" r="8" fill="#8b5cf6" opacity="0.7"/><circle cx="30" cy="5" r="6" fill="#06b6d4" opacity="0.7"/><circle cx="60" cy="0" r="8" fill="#8b5cf6" opacity="0.7"/><line x1="8" y1="0" x2="24" y2="5" stroke="#a78bfa" stroke-width="1" opacity="0.6"/><line x1="36" y1="5" x2="52" y2="0" stroke="#a78bfa" stroke-width="1" opacity="0.6"/></g></g><g transform="translate(600,300)"><line x1="-80" y1="0" x2="80" y2="0" stroke="url(#g)" stroke-width="3"/><polygon points="80,-8 100,0 80,8" fill="url(#g)"/><text x="0" y="-15" text-anchor="middle" fill="#22d3ee" font-size="10">contains</text></g><g transform="translate(900,300)"><circle cx="0" cy="0" r="100" fill="#1c1917" stroke="url(#c)" stroke-width="2.5" filter="url(#f)"/><text x="0" y="-20" text-anchor="middle" fill="#22d3ee" font-size="14" font-weight="bold">DEEP</text><text x="0" y="5" text-anchor="middle" fill="#22d3ee" font-size="14" font-weight="bold">LEARNING</text><g transform="translate(0,35)"><rect x="-60" y="-15" width="30" height="30" rx="4" fill="#8b5cf6" opacity="0.4" stroke="#8b5cf6" stroke-width="1"/><rect x="-20" y="-15" width="30" height="30" rx="4" fill="#06b6d4" opacity="0.4" stroke="#06b6d4" stroke-width="1"/><rect x="20" y="-15" width="30" height="30" rx="4" fill="#8b5cf6" opacity="0.4" stroke="#8b5cf6" stroke-width="1"/><line x1="-45" y1="-15" x2="-35" y2="-15" stroke="#a78bfa" stroke-width="1" opacity="0.6"/><line x1="-5" y1="-15" x2="5" y2="-15" stroke="#22d3ee" stroke-width="1" opacity="0.6"/><line x1="35" y1="-15" x2="45" y2="-15" stroke="#a78bfa" stroke-width="1" opacity="0.6"/></g></g><g transform="translate(150,150)"><rect x="0" y="0" width="100" height="60" rx="6" fill="#1c1917" stroke="#8b5cf6" stroke-width="1.5" opacity="0.8"/><text x="50" y="20" text-anchor="middle" fill="#a78bfa" font-size="9">Supervised</text><g transform="translate(10,30)"><circle cx="10" cy="8" r="5" fill="#8b5cf6" opacity="0.6"/><circle cx="30" cy="8" r="5" fill="#8b5cf6" opacity="0.6"/><circle cx="50" cy="8" r="5" fill="#06b6d4" opacity="0.6"/><circle cx="70" cy="8" r="5" fill="#8b5cf6" opacity="0.6"/></g></g><g transform="translate(150,430)"><rect x="0" y="0" width="100" height="60" rx="6" fill="#1c1917" stroke="#06b6d4" stroke-width="1.5" opacity="0.8"/><text x="50" y="20" text-anchor="middle" fill="#22d3ee" font-size="9">Unsupervised</text><g transform="translate(10,30)"><circle cx="15" cy="8" r="6" fill="#8b5cf6" opacity="0.5"/><circle cx="35" cy="10" r="5" fill="#06b6d4" opacity="0.5"/><circle cx="55" cy="7" r="6" fill="#a78bfa" opacity="0.5"/><circle cx="75" cy="9" r="5" fill="#22d3ee" opacity="0.5"/></g></g><g transform="translate(950,150)"><rect x="0" y="0" width="100" height="60" rx="6" fill="#1c1917" stroke="#8b5cf6" stroke-width="1.5" opacity="0.8"/><text x="50" y="20" text-anchor="middle" fill="#a78bfa" font-size="9">Neural Net</text><g transform="translate(50,40)"><circle cx="0" cy="-10" r="6" fill="#8b5cf6" opacity="0.6"/><circle cx="-15" cy="5" r="6" fill="#06b6d4" opacity="0.6"/><circle cx="15" cy="5" r="6" fill="#06b6d4" opacity="0.6"/><line x1="-6" y1="-7" x2="-12" y2="2" stroke="#a78bfa" stroke-width="1" opacity="0.6"/><line x1="6" y1="-7" x2="12" y2="2" stroke="#a78bfa" stroke-width="1" opacity="0.6"/></g></g><g transform="translate(950,430)"><rect x="0" y="0" width="100" height="60" rx="6" fill="#1c1917" stroke="#06b6d4" stroke-width="1.5" opacity="0.8"/><text x="50" y="20" text-anchor="middle" fill="#22d3ee" font-size="9">Reinforce</text><g transform="translate(50,40)"><path d="M 0 -15 L -10 0 L 0 15 L 10 0 Z" fill="none" stroke="#06b6d4" stroke-width="1.5"/><text x="0" y="3" text-anchor="middle" fill="#22d3ee" font-size="8">Agent</text></g></g><text x="600" y="530" text-anchor="middle" fill="url(#g)" font-size="28" font-weight="bold" filter="url(#f)">ML / DL Concepts</text><text x="600" y="565" text-anchor="middle" fill="#a78bfa" font-size="16" opacity="0.9">Machine Learning and Deep Learning</text></svg>