<?xml version="1.0" encoding="UTF-8"?>
<svg width="1200" height="630" viewBox="0 0 1200 630" xmlns="http://www.w3.org/2000/svg">
  <defs>
    <linearGradient id="bg" x1="0%" y1="0%" x2="100%" y2="100%">
      <stop offset="0%" style="stop-color:#0f172a"/>
      <stop offset="100%" style="stop-color:#1e1b4b"/>
    </linearGradient>
  </defs>
  <rect width="1200" height="630" fill="url(#bg)"/>
  <g transform="translate(600, 280)">
    <circle r="120" fill="none" stroke="#8b5cf6" stroke-width="3" opacity="0.5"/>
    <circle r="90" fill="none" stroke="#8b5cf6" stroke-width="2" opacity="0.3"/>
    <circle r="60" fill="none" stroke="#8b5cf6" stroke-width="2" opacity="0.2"/>
    <g fill="#8b5cf6">
      <circle cx="0" cy="-40" r="15"/>
      <circle cx="-35" cy="20" r="12"/>
      <circle cx="35" cy="20" r="12"/>
      <circle cx="-60" cy="-20" r="10"/>
      <circle cx="60" cy="-20" r="10"/>
      <circle cx="0" cy="50" r="10"/>
    </g>
    <g stroke="#8b5cf6" stroke-width="2" opacity="0.5">
      <line x1="0" y1="-40" x2="-35" y2="20"/>
      <line x1="0" y1="-40" x2="35" y2="20"/>
      <line x1="-35" y1="20" x2="-60" y2="-20"/>
      <line x1="35" y1="20" x2="60" y2="-20"/>
      <line x1="-35" y1="20" x2="0" y2="50"/>
      <line x1="35" y1="20" x2="0" y2="50"/>
    </g>
    <circle r="30" fill="#8b5cf6" opacity="0.3"/>
    <text x="0" y="8" text-anchor="middle" font-family="system-ui" font-size="24" font-weight="700" fill="#e2e8f0">AI</text>
  </g>
  <g transform="translate(200, 150)">
    <rect x="0" y="0" width="200" height="80" rx="12" fill="#312e81" stroke="#4c1d95" stroke-width="2"/>
    <text x="100" y="30" text-anchor="middle" font-family="system-ui" font-size="14" fill="#c4b5fd">Machine Learning</text>
    <text x="100" y="55" text-anchor="middle" font-family="system-ui" font-size="12" fill="#8b5cf6">Basics to Advanced</text>
  </g>
  <g transform="translate(800, 150)">
    <rect x="0" y="0" width="200" height="80" rx="12" fill="#312e81" stroke="#4c1d95" stroke-width="2"/>
    <text x="100" y="30" text-anchor="middle" font-family="system-ui" font-size="14" fill="#c4b5fd">Deep Learning</text>
    <text x="100" y="55" text-anchor="middle" font-family="system-ui" font-size="12" fill="#8b5cf6">Neural Networks</text>
  </g>
  <g transform="translate(500, 480)">
    <rect x="0" y="0" width="200" height="80" rx="12" fill="#312e81" stroke="#4c1d95" stroke-width="2"/>
    <text x="100" y="30" text-anchor="middle" font-family="system-ui" font-size="14" fill="#c4b5fd">LLM &amp; Models</text>
    <text x="100" y="55" text-anchor="middle" font-family="system-ui" font-size="12" fill="#8b5cf6">Large Language Models</text>
  </g>
  <text x="600" y="70" text-anchor="middle" font-family="system-ui, -apple-system, sans-serif" font-size="36" font-weight="700" fill="#ffffff">Captainbed.ai</text>
  <text x="600" y="105" text-anchor="middle" font-family="system-ui, -apple-system, sans-serif" font-size="16" fill="#8b5cf6" letter-spacing="3">ARTIFICIAL INTELLIGENCE TUTORIAL</text>
</svg>
