<svg xmlns="http://www.w3.org/2000/svg" viewBox="0 0 1200 630">
  <defs>
    <linearGradient id="bg" x1="0%" y1="0%" x2="100%" y2="100%">
      <stop offset="0%" style="stop-color:#0f172a"/>
      <stop offset="100%" style="stop-color:#1e293b"/>
    </linearGradient>
    <linearGradient id="accent1" x1="0%" y1="0%" x2="100%" y2="0%">
      <stop offset="0%" style="stop-color:#f43f5e"/>
      <stop offset="100%" style="stop-color:#8b5cf6"/>
    </linearGradient>
    <linearGradient id="treeGrad" x1="0%" y1="0%" x2="0%" y2="100%">
      <stop offset="0%" style="stop-color:#f43f5e"/>
      <stop offset="50%" style="stop-color:#8b5cf6"/>
      <stop offset="100%" style="stop-color:#22d3ee"/>
    </linearGradient>
    <filter id="glow">
      <feGaussianBlur stdDeviation="3" result="coloredBlur"/>
      <feMerge>
        <feMergeNode in="coloredBlur"/>
        <feMergeNode in="SourceGraphic"/>
      </feMerge>
    </filter>
  </defs>

  <rect width="1200" height="630" fill="url(#bg)"/>

  <!-- Grid -->
  <g stroke="#1e293b" stroke-width="0.5" opacity="0.3">
    <line x1="0" y1="100" x2="1200" y2="100"/><line x1="0" y1="200" x2="1200" y2="200"/>
    <line x1="0" y1="300" x2="1200" y2="300"/><line x1="0" y1="400" x2="1200" y2="400"/>
    <line x1="0" y1="500" x2="1200" y2="500"/>
    <line x1="200" y1="0" x2="200" y2="630"/><line x1="400" y1="0" x2="400" y2="630"/>
    <line x1="600" y1="0" x2="600" y2="630"/><line x1="800" y1="0" x2="800" y2="630"/>
    <line x1="1000" y1="0" x2="1000" y2="630"/>
  </g>

  <!-- N-ary tree visualization -->
  <g transform="translate(100, 60)">
    <rect x="0" y="0" width="400" height="300" rx="12" fill="#1e293b" stroke="#f43f5e" stroke-width="1"/>
    <text x="200" y="25" text-anchor="middle" fill="#f43f5e" font-family="system-ui, sans-serif" font-size="14" font-weight="bold">N-Ary Tree</text>

    <!-- Root -->
    <circle cx="200" cy="50" r="22" fill="#1e293b" stroke="#f43f5e" stroke-width="2" filter="url(#glow)"/>
    <text x="200" y="57" text-anchor="middle" fill="#f43f5e" font-family="monospace" font-size="14" font-weight="bold">1</text>

    <!-- Level 1 (3 children) -->
    <circle cx="100" cy="130" r="18" fill="#1e293b" stroke="#8b5cf6" stroke-width="1.5"/>
    <text x="100" y="136" text-anchor="middle" fill="#8b5cf6" font-family="monospace" font-size="12">3</text>
    <circle cx="200" cy="130" r="18" fill="#1e293b" stroke="#8b5cf6" stroke-width="1.5"/>
    <text x="200" y="136" text-anchor="middle" fill="#8b5cf6" font-family="monospace" font-size="12">2</text>
    <circle cx="300" cy="130" r="18" fill="#1e293b" stroke="#8b5cf6" stroke-width="1.5"/>
    <text x="300" y="136" text-anchor="middle" fill="#8b5cf6" font-family="monospace" font-size="12">4</text>

    <!-- Level 2 -->
    <circle cx="60" cy="210" r="15" fill="#1e293b" stroke="#22d3ee" stroke-width="1"/>
    <text x="60" y="215" text-anchor="middle" fill="#22d3ee" font-family="monospace" font-size="11">5</text>
    <circle cx="100" cy="210" r="15" fill="#1e293b" stroke="#22d3ee" stroke-width="1"/>
    <text x="100" y="215" text-anchor="middle" fill="#22d3ee" font-family="monospace" font-size="11">6</text>
    <circle cx="200" cy="210" r="15" fill="#1e293b" stroke="#22d3ee" stroke-width="1"/>
    <text x="200" y="215" text-anchor="middle" fill="#22d3ee" font-family="monospace" font-size="11">7</text>
    <circle cx="260" cy="210" r="15" fill="#1e293b" stroke="#22d3ee" stroke-width="1"/>
    <text x="260" y="215" text-anchor="middle" fill="#22d3ee" font-family="monospace" font-size="11">8</text>
    <circle cx="300" cy="210" r="15" fill="#1e293b" stroke="#22d3ee" stroke-width="1"/>
    <text x="300" y="215" text-anchor="middle" fill="#22d3ee" font-family="monospace" font-size="11">9</text>
    <circle cx="340" cy="210" r="15" fill="#1e293b" stroke="#22d3ee" stroke-width="1"/>
    <text x="340" y="215" text-anchor="middle" fill="#22d3ee" font-family="monospace" font-size="11">10</text>

    <!-- Level 3 -->
    <circle cx="45" cy="280" r="12" fill="#1e293b" stroke="#fbbf24" stroke-width="1"/>
    <text x="45" y="284" text-anchor="middle" fill="#fbbf24" font-family="monospace" font-size="10">11</text>
    <circle cx="75" cy="280" r="12" fill="#1e293b" stroke="#fbbf24" stroke-width="1"/>
    <text x="75" y="284" text-anchor="middle" fill="#fbbf24" font-family="monospace" font-size="10">12</text>
    <circle cx="200" cy="280" r="12" fill="#1e293b" stroke="#fbbf24" stroke-width="1"/>
    <text x="200" y="284" text-anchor="middle" fill="#fbbf24" font-family="monospace" font-size="10">13</text>

    <!-- Connecting lines -->
    <g stroke="#475569" stroke-width="1.5">
      <line x1="200" y1="72" x2="100" y2="112"/>
      <line x1="200" y1="72" x2="200" y2="112"/>
      <line x1="200" y1="72" x2="300" y2="112"/>

      <line x1="100" y1="148" x2="60" y2="195"/>
      <line x1="100" y1="148" x2="100" y2="195"/>
      <line x1="200" y1="148" x2="200" y2="195"/>
      <line x1="300" y1="148" x2="260" y2="195"/>
      <line x1="300" y1="148" x2="300" y2="195"/>
      <line x1="300" y1="148" x2="340" y2="195"/>

      <line x1="60" y1="225" x2="45" y2="268"/>
      <line x1="60" y1="225" x2="75" y2="268"/>
      <line x1="200" y1="225" x2="200" y2="268"/>
    </g>

    <!-- N value -->
    <rect x="350" y="260" width="40" height="30" rx="15" fill="#fbbf24" opacity="0.3" stroke="#fbbf24" stroke-width="1"/>
    <text x="370" y="280" text-anchor="middle" fill="#fbbf24" font-family="monospace" font-size="12" font-weight="bold">N=3</text>
  </g>

  <!-- Traversal orders -->
  <g transform="translate(550, 60)">
    <rect x="0" y="0" width="550" height="300" rx="12" fill="#1e293b" stroke="#8b5cf6" stroke-width="1"/>
    <text x="275" y="25" text-anchor="middle" fill="#8b5cf6" font-family="system-ui, sans-serif" font-size="14" font-weight="bold">Traversal Orders</text>

    <g font-family="monospace" font-size="13">
      <text x="20" y="55" fill="#f43f5e" font-weight="bold">Pre-order:</text>
      <text x="120" y="55" fill="#94a3b8">1 → 3 → 5 → 11 → 12 → 6 → 2 → 7 → 13 → 4 → 8 → 9 → 10</text>

      <text x="20" y="85" fill="#22d3ee" font-weight="bold">Post-order:</text>
      <text x="130" y="85" fill="#94a3b8">11 → 12 → 5 → 6 → 3 → 13 → 7 → 8 → 9 → 10 → 4 → 2 → 1</text>

      <text x="20" y="115" fill="#fbbf24" font-weight="bold">Level-order:</text>
      <text x="135" y="115" fill="#94a3b8">1 → 3,2,4 → 5,6,7,8,9,10 → 11,12,13</text>

      <!-- Code snippets -->
      <rect x="20" y="140" width="510" height="150" rx="8" fill="#0f172a" stroke="#334155" stroke-width="1"/>

      <text x="30" y="165" fill="#22d3ee" font-size="12">DFS (Pre-order):</text>
      <text x="30" y="190" fill="#94a3b8" font-size="11">void dfs(Node node) {</text>
      <text x="50" y="215" fill="#94a3b8" font-size="11">if (node == null) return;</text>
      <text x="50" y="240" fill="#f43f5e" font-size="11">result.add(node.val);</text>
      <text x="50" y="265" fill="#94a3b8" font-size="11">for (Node child : node.children)</text>
      <text x="70" y="290" fill="#94a3b8" font-size="11">dfs(child);</text>
      <text x="30" y="315" fill="#94a3b8" font-size="11">}</text>

      <text x="280" y="165" fill="#fbbf24" font-size="12">BFS (Level-order):</text>
      <text x="280" y="190" fill="#94a3b8" font-size="11">Queue&lt;Node&gt; q = new LinkedList&lt;&gt;();</text>
      <text x="280" y="215" fill="#94a3b8" font-size="11">q.offer(root);</text>
      <text x="280" y="240" fill="#8b5cf6" font-size="11">while (!q.isEmpty()) {</text>
      <text x="300" y="265" fill="#94a3b8" font-size="11">Node node = q.poll();</text>
      <text x="300" y="290" fill="#94a3b8" font-size="11">for (Node child : node.children)</text>
      <text x="320" y="315" fill="#94a3b8" font-size="11">q.offer(child);</text>
      <text x="280" y="340" fill="#94a3b8" font-size="11">}</text>
    </g>
  </g>

  <!-- Node structure -->
  <g transform="translate(100, 390)">
    <rect x="0" y="0" width="1000" height="100" rx="10" fill="#1e293b" stroke="#475569" stroke-width="1"/>
    <text x="20" y="25" fill="#22d3ee" font-family="system-ui, sans-serif" font-size="14" font-weight="bold">Node Structure:</text>
    <g font-family="monospace" font-size="13">
      <text x="20" y="50" fill="#8b5cf6">class</text>
      <text x="80" y="50" fill="#f43f5e">Node</text>
      <text x="130" y="50" fill="#94a3b8">{</text>
      <text x="40" y="75" fill="#22d3ee">public int</text>
      <text x="130" y="75" fill="#94a3b8">val;</text>
      <text x="40" y="75" fill="#22d3ee">public List&lt;Node&gt;</text>
      <text x="230" y="75" fill="#94a3b8">children;</text>
      <text x="130" y="75" fill="#94a3b8">}</text>
    </g>
    <text x="20" y="90" fill="#fbbf24" font-family="system-ui, sans-serif" font-size="12">Key difference from binary tree: children is a List, not left/right pointers</text>
  </g>

  <!-- Complexity -->
  <g transform="translate(100, 510)">
    <rect x="0" y="0" width="400" height="60" rx="8" fill="#1e293b" stroke="#22d3ee" stroke-width="1"/>
    <text x="200" y="25" text-anchor="middle" fill="#22d3ee" font-family="system-ui, sans-serif" font-size="13" font-weight="bold">Time Complexity: O(n)</text>
    <text x="200" y="45" text-anchor="middle" fill="#94a3b8" font-family="system-ui, sans-serif" font-size="12">Space: O(h) where h = tree height</text>
  </g>

  <g transform="translate(520, 510)">
    <rect x="0" y="0" width="400" height="60" rx="8" fill="#1e293b" stroke="#fbbf24" stroke-width="1"/>
    <text x="200" y="25" text-anchor="middle" fill="#fbbf24" font-family="system-ui, sans-serif" font-size="13" font-weight="bold">Problems:</text>
    <g font-family="system-ui, sans-serif" font-size="11" fill="#94a3b8">
      <text x="10" y="45">N-ary Tree Preorder Traversal</text>
      <text x="260" y="45" fill="#64748b">|</text>
      <text x="280" y="45">N-ary Tree Postorder Traversal</text>
    </g>
  </g>

  <!-- Title -->
  <text x="600" y="585" text-anchor="middle" fill="url(#accent1)" font-family="system-ui, sans-serif" font-size="36" font-weight="bold" filter="url(#glow)">N-Ary Tree Traversal</text>
  <text x="600" y="610" text-anchor="middle" fill="#64748b" font-family="system-ui, sans-serif" font-size="18">多叉树遍历算法详解</text>
</svg>
