<svg xmlns="http://www.w3.org/2000/svg" viewBox="0 0 1200 630" width="1200" height="630">
  <defs>
    <linearGradient id="bg5" x1="0%" y1="0%" x2="100%" y2="100%">
      <stop offset="0%" style="stop-color:#0d0d0d"/>
      <stop offset="100%" style="stop-color:#1a1a2e"/>
    </linearGradient>
    <linearGradient id="grad5" x1="0%" y1="0%" x2="100%" y2="0%">
      <stop offset="0%" style="stop-color:#e34c26"/>
      <stop offset="33%" style="stop-color:#264de4"/>
      <stop offset="66%" style="stop-color:#f0db50"/>
      <stop offset="100%" style="stop-color:#323330"/>
    </linearGradient>
  </defs>
  <rect width="1200" height="630" fill="url(#bg5)"/>
  <g stroke="#ffffff" stroke-opacity="0.03" stroke-width="1">
    <line x1="0" y1="0" x2="1200" y2="0"/><line x1="0" y1="50" x2="1200" y2="50"/><line x1="0" y1="100" x2="1200" y2="100"/>
    <line x1="0" y1="150" x2="1200" y2="150"/><line x1="0" y1="200" x2="1200" y2="200"/><line x1="0" y1="250" x2="1200" y2="250"/>
    <line x1="0" y1="300" x2="1200" y2="300"/><line x1="0" y1="350" x2="1200" y2="350"/><line x1="0" y1="400" x2="1200" y2="400"/>
    <line x1="0" y1="450" x2="1200" y2="450"/><line x1="0" y1="500" x2="1200" y2="500"/><line x1="0" y1="550" x2="1200" y2="550"/>
    <line x1="0" y1="600" x2="1200" y2="600"/>
  </g>
  <g transform="translate(250, 300)">
    <polygon points="0,-80 70,-60 70,40 0,80 -70,40 -70,-60" fill="#e34c26" fill-opacity="0.9"/>
    <text x="0" y="5" fill="#fff" font-family="Arial, sans-serif" font-size="28" font-weight="bold" text-anchor="middle">HTML</text>
    <text x="0" y="30" fill="#fff" font-family="Arial, sans-serif" font-size="14" text-anchor="middle">5</text>
  </g>
  <g transform="translate(500, 300)">
    <polygon points="0,-80 70,-60 70,40 0,80 -70,40 -70,-60" fill="#264de4" fill-opacity="0.9"/>
    <text x="0" y="5" fill="#fff" font-family="Arial, sans-serif" font-size="28" font-weight="bold" text-anchor="middle">CSS</text>
    <text x="0" y="30" fill="#fff" font-family="Arial, sans-serif" font-size="14" text-anchor="middle">3</text>
  </g>
  <g transform="translate(750, 300)">
    <polygon points="0,-80 70,-60 70,40 0,80 -70,40 -70,-60" fill="#f0db50"/>
    <text x="0" y="5" fill="#323330" font-family="Arial, sans-serif" font-size="24" font-weight="bold" text-anchor="middle">JS</text>
    <text x="0" y="30" fill="#323330" font-family="Arial, sans-serif" font-size="14" text-anchor="middle">ES6+</text>
  </g>
  <g transform="translate(1000, 150)">
    <rect x="0" y="0" width="180" height="140" rx="8" fill="#1a1a2e" stroke="#ffffff" stroke-opacity="0.2"/>
    <rect x="0" y="0" width="180" height="25" rx="8" fill="#323330"/>
    <rect x="0" y="17" width="180" height="8" fill="#323330"/>
    <circle cx="15" cy="12" r="5" fill="#e34c26"/>
    <circle cx="30" cy="12" r="5" fill="#f0db50"/>
    <circle cx="45" cy="12" r="5" fill="#264de4"/>
    <text x="10" y="45" fill="#e34c26" font-family="monospace" font-size="10">{'<'}div class="box"{'>'}</text>
    <text x="20" y="60" fill="#264de4" font-family="monospace" font-size="10">style={'{'} color: #fff {'}'}</text>
    <text x="20" y="75" fill="#ffffff" font-family="monospace" font-size="10">{'<'}h1{'>'}Hello{'</'}h1{'>'}</text>
    <text x="20" y="90" fill="#f0db50" font-family="monospace" font-size="10">const x = 42;</text>
    <text x="10" y="125" fill="#e34c26" font-family="monospace" font-size="10">{'</'}div{'>'}</text>
  </g>
  <g transform="translate(100, 420)">
    <rect x="0" y="0" width="200" height="130" rx="5" fill="none" stroke="#ffffff" stroke-opacity="0.3" stroke-width="2"/>
    <rect x="0" y="0" width="200" height="25" rx="5" fill="#ffffff" fill-opacity="0.1"/>
    <rect x="0" y="20" width="200" height="5" fill="#ffffff" fill-opacity="0.1"/>
    <circle cx="15" cy="12" r="4" fill="#e34c26"/>
    <circle cx="30" cy="12" r="4" fill="#f0db50"/>
    <circle cx="45" cy="12" r="4" fill="#4ade80"/>
    <rect x="10" y="40" width="80" height="15" rx="2" fill="#264de4" fill-opacity="0.5"/>
    <rect x="100" y="40" width="80" height="15" rx="2" fill="#e34c26" fill-opacity="0.5"/>
    <rect x="10" y="65" width="180" height="50" rx="2" fill="#ffffff" fill-opacity="0.05"/>
    <text x="100" y="95" fill="#ffffff" fill-opacity="0.6" font-family="Arial, sans-serif" font-size="12" text-anchor="middle">Web Page</text>
  </g>
  <g font-family="monospace" font-size="120" fill="#ffffff" fill-opacity="0.05">
    <text x="50" y="550">{'{'}</text>
    <text x="1050" y="550">{'}'}</text>
  </g>
  <text x="600" y="520" fill="url(#grad5)" font-family="Arial, sans-serif" font-size="48" font-weight="bold" text-anchor="middle">HTML5 + CSS + JS</text>
  <text x="600" y="570" fill="#ffffff" fill-opacity="0.6" font-family="Arial, sans-serif" font-size="20" text-anchor="middle">Web Frontend Fundamentals</text>
  <rect x="480" y="590" width="240" height="3" fill="url(#grad5)" rx="1.5"/>
</svg>
