<svg xmlns="http://www.w3.org/2000/svg" viewBox="0 0 1200 630">
  <defs>
    <linearGradient id="bg" x1="0%" y1="0%" x2="100%" y2="100%">
      <stop offset="0%" style="stop-color:#0f172a"/>
      <stop offset="100%" style="stop-color:#1e293b"/>
    </linearGradient>
    <linearGradient id="accent" x1="0%" y1="0%" x2="100%" y2="0%">
      <stop offset="0%" style="stop-color:#06b6d4"/>
      <stop offset="100%" style="stop-color:#22d3ee"/>
    </linearGradient>
    <linearGradient id="glow" x1="0%" y1="0%" x2="0%" y2="100%">
      <stop offset="0%" style="stop-color:#06b6d4;stop-opacity:0.2"/>
      <stop offset="100%" style="stop-color:#06b6d4;stop-opacity:0"/>
    </linearGradient>
  </defs>
  <rect width="1200" height="630" fill="url(#bg)"/>
  <g stroke="#334155" stroke-width="0.5" opacity="0.25">
    <line x1="0" y1="157" x2="1200" y2="157"/>
    <line x1="0" y1="315" x2="1200" y2="315"/>
    <line x1="0" y1="473" x2="1200" y2="473"/>
    <line x1="300" y1="0" x2="300" y2="630"/>
    <line x1="600" y1="0" x2="600" y2="630"/>
    <line x1="900" y1="0" x2="900" y2="630"/>
  </g>
  <g transform="translate(600, 315)" opacity="0.08">
    <circle cx="0" cy="0" r="180" fill="none" stroke="#06b6d4" stroke-width="50"/>
  </g>
  <g transform="translate(600, 315)">
    <circle cx="0" cy="0" r="100" fill="none" stroke="url(#accent)" stroke-width="4"/>
    <path d="M-60,-40 Q-40,-60 -20,-40 Q0,-60 20,-40 Q40,-60 60,-40" fill="none" stroke="#06b6d4" stroke-width="2" opacity="0.6"/>
    <path d="M-60,0 Q-40,-20 -20,0 Q0,-20 20,0 Q40,-20 60,0" fill="none" stroke="#06b6d4" stroke-width="2" opacity="0.6"/>
    <path d="M-60,40 Q-40,20 -20,40 Q0,20 20,40 Q40,20 60,40" fill="none" stroke="#06b6d4" stroke-width="2" opacity="0.6"/>
    <circle cx="0" cy="0" r="12" fill="#06b6d4"/>
    <g opacity="0.5">
      <circle cx="-70" cy="-50" r="6" fill="#22d3ee"/>
      <circle cx="70" cy="-50" r="6" fill="#22d3ee"/>
      <circle cx="-70" cy="50" r="6" fill="#22d3ee"/>
      <circle cx="70" cy="50" r="6" fill="#22d3ee"/>
    </g>
  </g>
  <g opacity="0.3">
    <circle cx="200" cy="180" r="35" fill="none" stroke="#06b6d4" stroke-width="2"/>
    <circle cx="1000" cy="180" r="35" fill="none" stroke="#22d3ee" stroke-width="2"/>
    <circle cx="200" cy="450" r="30" fill="none" stroke="#06b6d4" stroke-width="2"/>
    <circle cx="1000" cy="450" r="30" fill="none" stroke="#22d3ee" stroke-width="2"/>
  </g>
  <text x="600" y="270" text-anchor="middle" fill="#06b6d4" font-family="Arial, sans-serif" font-size="64" font-weight="bold">学习</text>
  <text x="600" y="350" text-anchor="middle" fill="#fff" font-family="Arial, sans-serif" font-size="30" font-weight="300" letter-spacing="8">B A C K E N D</text>
  <g transform="translate(600, 410)">
    <rect x="-60" y="-18" width="120" height="36" rx="18" fill="#06b6d4" opacity="0.15"/>
    <text x="0" y="6" text-anchor="middle" fill="#22d3ee" font-family="Arial, sans-serif" font-size="14">Learning Path</text>
  </g>
  <text x="600" y="560" text-anchor="middle" fill="#64748b" font-family="Arial, sans-serif" font-size="18" letter-spacing="2">From Basics to Mastery</text>
  <path d="M0,50 L0,0 L50,0" fill="none" stroke="#06b6d4" stroke-width="2" opacity="0.5"/>
  <path d="M1200,50 L1200,0 L1150,0" fill="none" stroke="#06b6d4" stroke-width="2" opacity="0.5"/>
  <path d="M0,580 L0,630 L50,630" fill="none" stroke="#06b6d4" stroke-width="2" opacity="0.5"/>
  <path d="M1200,580 L1200,630 L1150,630" fill="none" stroke="#06b6d4" stroke-width="2" opacity="0.5"/>
</svg>
