<svg xmlns="http://www.w3.org/2000/svg" viewBox="0 0 1200 630">
  <defs>
    <linearGradient id="bg" x1="0%" y1="0%" x2="100%" y2="100%">
      <stop offset="0%" stop-color="#0c1929"/>
      <stop offset="100%" stop-color="#1e3a5f"/>
    </linearGradient>
    <linearGradient id="cyan" x1="0%" y1="0%" x2="100%" y2="100%">
      <stop offset="0%" stop-color="#22d3ee"/>
      <stop offset="100%" stop-color="#0891b2"/>
    </linearGradient>
    <linearGradient id="purple" x1="0%" y1="0%" x2="100%" y2="100%">
      <stop offset="0%" stop-color="#7c3aed"/>
      <stop offset="100%" stop-color="#6366f1"/>
    </linearGradient>
    <linearGradient id="blue" x1="0%" y1="0%" x2="100%" y2="100%">
      <stop offset="0%" stop-color="#3b82f6"/>
      <stop offset="100%" stop-color="#1d4ed8"/>
    </linearGradient>
    <linearGradient id="cloudGrad" x1="0%" y1="0%" x2="100%" y2="0%">
      <stop offset="0%" stop-color="#e0f2fe"/>
      <stop offset="100%" stop-color="#bae6fd"/>
    </linearGradient>
  </defs>

  <rect width="1200" height="630" fill="url(#bg)"/>

  <g transform="translate(180, 280)">
    <circle cx="0" cy="0" r="100" fill="none" stroke="url(#cyan)" stroke-width="3"/>
    <circle cx="0" cy="0" r="70" fill="none" stroke="url(#cyan)" stroke-width="2" opacity="0.6"/>
    <circle cx="0" cy="0" r="40" fill="#0c1929" stroke="url(#cyan)" stroke-width="3"/>

    <line x1="0" y1="-100" x2="0" y2="-40" stroke="url(#cyan)" stroke-width="4"/>
    <line x1="0" y1="100" x2="0" y2="40" stroke="url(#cyan)" stroke-width="4"/>
    <line x1="-100" y1="0" x2="-40" y2="0" stroke="url(#cyan)" stroke-width="4"/>
    <line x1="100" y1="0" x2="40" y2="0" stroke="url(#cyan)" stroke-width="4"/>
    <line x1="-71" y1="-71" x2="-28" y2="-28" stroke="url(#cyan)" stroke-width="4"/>
    <line x1="71" y1="71" x2="28" y2="28" stroke="url(#cyan)" stroke-width="4"/>
    <line x1="71" y1="-71" x2="28" y2="-28" stroke="url(#cyan)" stroke-width="4"/>
    <line x1="-71" y1="71" x2="-28" y2="28" stroke="url(#cyan)" stroke-width="4"/>

    <circle cx="0" cy="0" r="20" fill="url(#cyan)"/>
    <text x="0" y="5" text-anchor="middle" fill="#0c1929" font-family="Arial, sans-serif" font-size="12" font-weight="bold">K8S</text>
  </g>

  <g transform="translate(600, 100)">
    <path d="M-80,30 Q-100,30 -100,10 Q-100,-20 -60,-20 Q-50,-50 0,-50 Q40,-50 50,-20 Q90,-20 90,10 Q90,30 70,30 L-80,30 Z" fill="url(#cloudGrad)" opacity="0.15" stroke="#e0f2fe" stroke-width="2"/>
    <text x="0" y="5" text-anchor="middle" fill="#e0f2fe" font-family="Arial, sans-serif" font-size="16" font-weight="bold" opacity="0.8">CLOUD</text>
  </g>

  <g transform="translate(350, 150)">
    <rect x="0" y="0" width="50" height="40" rx="4" fill="#1e3a5f" stroke="url(#purple)" stroke-width="2"/>
    <rect x="5" y="5" width="15" height="12" fill="url(#purple)" opacity="0.6"/>
    <rect x="22" y="5" width="15" height="12" fill="url(#purple)" opacity="0.6"/>
    <rect x="5" y="20" width="15" height="12" fill="url(#purple)" opacity="0.6"/>
    <rect x="22" y="20" width="15" height="12" fill="url(#purple)" opacity="0.6"/>
  </g>

  <g transform="translate(800, 120)">
    <rect x="0" y="0" width="50" height="40" rx="4" fill="#1e3a5f" stroke="url(#cyan)" stroke-width="2"/>
    <rect x="5" y="5" width="15" height="12" fill="url(#cyan)" opacity="0.6"/>
    <rect x="22" y="5" width="15" height="12" fill="url(#cyan)" opacity="0.6"/>
    <rect x="5" y="20" width="15" height="12" fill="url(#cyan)" opacity="0.6"/>
    <rect x="22" y="20" width="15" height="12" fill="url(#cyan)" opacity="0.6"/>
  </g>

  <g transform="translate(550, 380)">
    <rect x="0" y="0" width="100" height="80" rx="8" fill="#1e3a5f" stroke="url(#blue)" stroke-width="2"/>
    <rect x="10" y="15" width="80" height="20" rx="3" fill="#0c1929"/>
    <rect x="15" y="20" width="30" height="10" fill="#22c55e" opacity="0.8"/>
    <rect x="55" y="20" width="30" height="10" fill="#3b82f6" opacity="0.8"/>
    <rect x="10" y="45" width="80" height="20" rx="3" fill="#0c1929"/>
    <circle cx="25" cy="55" r="6" fill="#6366f1"/>
    <rect x="40" y="50" width="40" height="10" rx="2" fill="#4c4a85" opacity="0.5"/>
  </g>

  <g transform="translate(900, 300)">
    <ellipse cx="60" cy="40" rx="70" ry="40" fill="#1e3a5f" stroke="url(#blue)" stroke-width="2"/>
    <path d="M10,20 Q0,0 30,10 Q50,-10 70,10 Q90,0 100,20" fill="none" stroke="#3b82f6" stroke-width="3"/>
    <circle cx="30" cy="30" r="8" fill="#0c1929" stroke="#3b82f6" stroke-width="2"/>
    <circle cx="32" cy="28" r="3" fill="#fff8ee"/>
    <path d="M90,50 Q110,60 100,70" fill="none" stroke="#3b82f6" stroke-width="8" stroke-linecap="round"/>
    <rect x="50" y="25" width="8" height="25" fill="#3b82f6" opacity="0.6"/>
    <rect x="65" y="30" width="8" height="20" fill="#3b82f6" opacity="0.6"/>
    <text x="60" y="90" text-anchor="middle" fill="#3b82f6" font-family="Arial, sans-serif" font-size="14" font-weight="bold">DOCKER</text>
  </g>

  <g transform="translate(100, 450)">
    <ellipse cx="30" cy="35" rx="25" ry="30" fill="#1e3a5f" stroke="url(#cyan)" stroke-width="2"/>
    <ellipse cx="30" cy="45" rx="18" ry="20" fill="#0c1929"/>
    <circle cx="22" cy="25" r="5" fill="#0c1929" stroke="#22d3ee" stroke-width="2"/>
    <circle cx="38" cy="25" r="5" fill="#0c1929" stroke="#22d3ee" stroke-width="2"/>
    <circle cx="23" cy="24" r="2" fill="#fff8ee"/>
    <circle cx="39" cy="24" r="2" fill="#fff8ee"/>
    <path d="M25,35 L30,40 L35,35" fill="#f97316"/>
    <text x="30" y="85" text-anchor="middle" fill="#22d3ee" font-family="Arial, sans-serif" font-size="12" font-weight="bold">LINUX</text>
  </g>

  <g stroke="#4c4a85" stroke-width="1" opacity="0.4" fill="none">
    <path d="M280,280 Q400,200 500,380"/>
    <path d="M650,380 Q750,300 850,300"/>
    <path d="M180,180 Q250,150 350,150"/>
    <path d="M650,100 Q750,100 800,120"/>
  </g>

  <text x="600" y="540" text-anchor="middle" fill="#fff8ee" font-family="Arial, sans-serif" font-size="42" font-weight="bold" letter-spacing="2">
    CLOUD
  </text>
  <text x="600" y="585" text-anchor="middle" fill="#a5b4fc" font-family="Arial, sans-serif" font-size="22" letter-spacing="4">
    LEARNING CHECKLIST
  </text>
</svg>
